<svg width="58" height="58" viewBox="0 0 58 58" xmlns="http://www.w3.org/2000/svg">
<path d="M21.6964 57.7516C24.5754 51.9761 26.6722 46.0507 27.0444 39.7143C27.386 37.3826 25.9698 37.3435 25.7563 38.9857C21.6799 54.5785 -0.00636608 50.3561 0.739234 35.6892C1.34423 23.7944 13.1587 21.2355 19.3215 25.1247C21.7551 26.5575 21.6176 25.6993 20.2894 24.213C11.1346 14.0015 16.6793 0.851204 29.0506 0.610504C42.4302 1.40393 45.9018 15.4804 37.6948 23.7588C36.6742 24.7534 34.4113 27.9502 37.8178 25.7151C46.1046 19.8271 57.6052 26.158 57.3706 35.2359C56.9379 51.9748 36.5314 53.2232 32.1673 39.2416C31.7475 37.6915 30.5382 36.913 30.8723 39.5459C31.4772 44.3126 32.7289 51.4993 36.3098 57.7516H21.6964Z" fill="black"/>
</svg>