<svg width="0" height="0" class="hidden">
  <symbol fill="none" xmlns="http://www.w3.org/2000/svg" viewBox="0 0 20 26" id="hearts">
    <path d="M1.08361 10.6495C-0.499392 7.17719 -0.673245 1.24408 4.05455 0.441467C7.61665 -0.0169725 9.0664 1.63977 9.3546 4.18333C9.4968 4.92635 9.91608 4.97183 10.0492 4.12503C10.2536 1.51564 12.8364 -0.00756878 14.8556 0.375061C20.3822 1.32046 20.0597 7.4035 18.2543 11.5306C15.5234 17.0101 12.6535 20.4682 10.0091 25.9825C6.97094 20.2415 3.50201 15.5773 1.08361 10.6495Z" fill="#D40000"></path>
  </symbol>
  <symbol xmlns="http://www.w3.org/2000/svg" viewBox="0 0 58 58" id="clubs">
    <path d="M21.6964 57.7516C24.5754 51.9761 26.6722 46.0507 27.0444 39.7143C27.386 37.3826 25.9698 37.3435 25.7563 38.9857C21.6799 54.5785 -0.00636608 50.3561 0.739234 35.6892C1.34423 23.7944 13.1587 21.2355 19.3215 25.1247C21.7551 26.5575 21.6176 25.6993 20.2894 24.213C11.1346 14.0015 16.6793 0.851204 29.0506 0.610504C42.4302 1.40393 45.9018 15.4804 37.6948 23.7588C36.6742 24.7534 34.4113 27.9502 37.8178 25.7151C46.1046 19.8271 57.6052 26.158 57.3706 35.2359C56.9379 51.9748 36.5314 53.2232 32.1673 39.2416C31.7475 37.6915 30.5382 36.913 30.8723 39.5459C31.4772 44.3126 32.7289 51.4993 36.3098 57.7516H21.6964Z" fill="black"></path>
  </symbol>
  <symbol fill="none" xmlns="http://www.w3.org/2000/svg" viewBox="0 0 58 58" id="diamonds">
    <path d="M0.828308 12.8325C4.89225 8.86655 7.56119 4.54242 10.1137 0.383881C12.3521 4.9596 15.5644 8.96273 19.0383 12.8325C15.3214 16.6703 12.4409 20.7739 10.1248 25.0881C7.55729 20.6657 4.85435 16.6611 0.828308 12.8325Z" fill="#D40000"></path>
  </symbol>
</svg>