<svg width="0" height="0" class="hidden">
  <symbol fill="none" xmlns="http://www.w3.org/2000/svg" viewBox="0 0 39 36" id="building">
    <path d="M35.8874 13.3101V32.9711C35.8874 34.2952 34.7396 35.369 33.3242 35.369H5.12915C3.71379 35.369 2.56596 34.2952 2.56596 32.9711C2.56596 14.3841 2.56428 17.8659 2.57157 13.3101H35.8874Z" fill="#D1E7FF"></path>
    <path d="M35.8875 13.3101V17.8509C35.8875 18.8336 35.0454 19.6477 33.995 19.6517C33.9833 19.6518 4.47883 19.6518 4.45752 19.6517C3.40741 19.6474 2.56597 18.8333 2.56597 17.8509C2.56597 16.5403 2.56501 17.4452 2.57157 13.3101H35.8875Z" fill="#D1E7FF"></path>
    <path d="M25.7148 24.6534V35.369H12.7386V24.6534C12.7386 23.3293 13.8864 22.2555 15.3018 22.2555H23.1516C24.5669 22.2555 25.7148 23.3293 25.7148 24.6534Z" fill="#D1E7FF"></path>
    <path d="M37.8098 13.3099C37.8098 15.7091 35.7302 17.6561 33.164 17.6561C30.5984 17.6561 28.5182 15.7101 28.5182 13.3099C28.5182 15.7101 26.4381 17.6561 23.8725 17.6561C21.3069 17.6561 19.2267 15.7101 19.2267 13.3099C19.2267 15.7101 17.1465 17.6561 14.5809 17.6561C12.0153 17.6561 9.93514 15.7101 9.93514 13.3099C9.93114 15.6944 7.83333 17.6561 5.28937 17.6561C2.74853 17.6561 0.647598 15.6968 0.643593 13.3099C0.643593 9.53266 0.63254 9.76511 0.671628 9.59171C0.710076 9.42154 0.443585 10.0241 4.47396 1.32197C4.67741 0.88361 5.13958 0.599609 5.64982 0.599609H32.8036C33.3138 0.599609 33.776 0.88361 33.9794 1.32197C38.0128 10.0305 37.7432 9.42139 37.7818 9.59171C37.8208 9.76473 37.8098 9.52854 37.8098 13.3099Z" fill="#D1E7FF"></path>
    <path d="M37.8098 13.31C37.8098 15.7091 35.7302 17.6561 33.164 17.6561C30.5984 17.6561 28.5182 15.7101 28.5182 13.31C28.5182 15.7101 26.438 17.6561 23.8725 17.6561C21.3069 17.6561 19.2267 15.7101 19.2267 13.31C19.2267 15.7101 17.1465 17.6561 14.5809 17.6561C12.0153 17.6561 9.93512 15.7101 9.93512 13.31C9.93111 15.6943 7.8333 17.6561 5.28934 17.6561C2.74849 17.6561 0.647561 15.6968 0.643556 13.31C0.637228 9.51207 0.638189 9.73994 0.671591 9.5918H37.7818C37.8208 9.76482 37.8098 9.52863 37.8098 13.31Z" fill="#D1E7FF"></path>
    <path d="M32.4574 3.80293C24.3211 2.75534 16.1097 4.09899 9.46815 8.78078C8.72058 9.30779 7.80937 9.5918 6.87332 9.5918H0.671692C0.71014 9.42162 0.443648 10.0242 4.47402 1.32198C4.67747 0.883613 5.13965 0.599609 5.64988 0.599609H32.8037C33.3144 0.599609 33.7763 0.883313 33.9794 1.32168L34.1579 1.707C34.6582 2.78703 33.7039 3.96344 32.4574 3.80293Z" fill="white"></path>
    <path d="M36.56 20.325V33C36.56 34.6542 35.1214 36 33.3532 36H5.13362C3.3654 36 1.92684 34.6542 1.92684 33V20.325C1.92684 19.9937 2.21401 19.725 2.5682 19.725C2.92238 19.725 3.20955 19.9937 3.20955 20.325V33C3.20955 33.9925 4.07265 34.8 5.13362 34.8H12.1083V24.675C12.1083 23.0208 13.5469 21.675 15.3151 21.675H23.1717C24.9399 21.675 26.3785 23.0208 26.3785 24.675V32.4C26.3785 32.7313 26.0913 33 25.7371 33C25.3829 33 25.0958 32.7313 25.0958 32.4V24.675C25.0958 23.6825 24.2326 22.875 23.1717 22.875H15.3151C14.2542 22.875 13.3911 23.6825 13.3911 24.675V34.8H18.6021V25.35C18.6021 25.0187 18.8892 24.75 19.2434 24.75C19.5976 24.75 19.8848 25.0187 19.8848 25.35V34.8H33.3532C34.4141 34.8 35.2773 33.9925 35.2773 33V20.325C35.2773 19.9937 35.5644 19.725 35.9186 19.725C36.2728 19.725 36.56 19.9936 36.56 20.325ZM4.17158 9.6C4.17158 9.93135 4.45875 10.2 4.81294 10.2C39.7081 10.2 37.9779 10.2584 38.2329 10.0754C38.3661 9.9795 38.4533 9.84112 38.4772 9.68303C38.5129 9.4419 38.7431 10.0349 34.2623 0.361425C34.1606 0.141975 33.9295 0 33.6738 0H4.81286C4.55728 0 4.32599 0.14205 4.22441 0.361425L0.0556098 9.36143C-0.0180658 9.52058 0.00269808 9.26798 0.00269808 13.3224C0.0073479 16.0513 2.38092 18.2714 5.29387 18.2714C7.29642 18.2714 9.04403 17.2222 9.94233 15.6797C11.9486 19.129 17.2333 19.1328 19.2433 15.682C21.2517 19.13 26.5341 19.1308 28.543 15.682C29.4406 17.2232 31.1884 18.2714 33.1928 18.2714C36.1104 18.2714 38.484 16.0509 38.484 13.3214C38.484 12.9901 38.1968 12.7214 37.8426 12.7214C37.4884 12.7214 37.2013 12.9901 37.2013 13.3214C37.2013 15.3892 35.4031 17.0714 33.1928 17.0714C30.9825 17.0714 29.1843 15.3892 29.1843 13.3214C29.1843 12.9901 28.8972 12.7214 28.543 12.7214C28.1888 12.7214 27.9016 12.9901 27.9016 13.3214C27.9016 15.3892 26.1034 17.0714 23.8932 17.0714C21.6829 17.0714 19.8847 15.3892 19.8847 13.3214C19.8847 12.9901 19.5975 12.7214 19.2433 12.7214C18.8891 12.7214 18.602 12.9901 18.602 13.3214C18.602 15.3892 16.8038 17.0714 14.5935 17.0714C12.4324 17.0714 10.585 15.4466 10.585 13.2914C10.585 12.9601 10.2979 12.6914 9.94369 12.6914C9.58951 12.6914 9.30234 12.9601 9.30234 13.2914C9.30234 15.4284 7.46654 17.0714 5.29387 17.0714C3.08713 17.0714 1.28885 15.3887 1.28541 13.3214V9.72435L5.23399 1.2H33.2528L36.8658 9H4.81294C4.45867 9 4.17158 9.26858 4.17158 9.6Z" fill="#007FFC"></path>
  </symbol>
  <symbol fill="none" xmlns="http://www.w3.org/2000/svg" viewBox="0 0 38 38" id="dribbble">
    <rect width="38" height="38" rx="5" fill="#EFEEF3"></rect>
    <path d="M18.6875 9C13.3458 9 9 13.3458 9 18.6875C9 24.0292 13.3458 28.375 18.6875 28.375C24.0292 28.375 28.375 24.0292 28.375 18.6875C28.375 13.3458 24.0292 9 18.6875 9ZM25.0926 13.4674C26.245 14.8755 26.9429 16.6689 26.9611 18.6219C26.6883 18.5642 23.9526 18.0093 21.1993 18.3556C20.9746 17.8071 20.7626 17.3246 20.4721 16.73C23.5315 15.4809 24.9181 13.7034 25.0926 13.4674ZM24.1727 12.5105C24.0239 12.7225 22.7783 14.3967 19.8359 15.4996C18.48 13.0083 16.9771 10.9618 16.7484 10.6555C19.3725 10.023 22.1377 10.7051 24.1727 12.5105ZM15.1696 11.2117C15.3877 11.5109 16.8664 13.56 18.2374 15.9972C14.3668 17.0251 10.9577 17.0103 10.5877 17.0054C11.1242 14.4377 12.8546 12.3036 15.1696 11.2117ZM10.4129 18.7001C10.4129 18.6155 10.4146 18.5313 10.4171 18.4473C10.7791 18.4547 14.789 18.5064 18.9213 17.2697C19.1581 17.7333 19.3844 18.2039 19.5921 18.6739C16.6 19.5167 13.8814 21.9367 12.5401 24.2328C11.2185 22.7658 10.4129 20.8254 10.4129 18.7001ZM13.6085 25.228C14.4728 23.4611 16.8186 21.1802 20.1545 20.0422C21.3162 23.0611 21.7967 25.5911 21.9197 26.3171C19.2591 27.4504 16.0598 27.1395 13.6085 25.228ZM23.3108 25.5596C23.226 25.0562 22.7856 22.6339 21.7033 19.6598C24.2963 19.2448 26.5744 19.9242 26.8575 20.0136C26.4887 22.3159 25.1671 24.3043 23.3108 25.5596Z" fill="#0D0D0D"></path>
  </symbol>
  <symbol fill="none" xmlns="http://www.w3.org/2000/svg" viewBox="0 0 38 38" id="facebook">
    <rect width="38" height="38" rx="5" fill="#EFEEF3"></rect>
    <path d="M23.3447 20.5025L23.8632 17.1235H20.621V14.9307C20.621 14.0063 21.0739 13.1052 22.526 13.1052H24V10.2283C24 10.2283 22.6624 10 21.3835 10C18.7134 10 16.9681 11.6184 16.9681 14.5482V17.1235H14V20.5025H16.9681V28.6711H20.621V20.5025H23.3447Z" fill="#0D0D0D"></path>
  </symbol>
  <symbol fill="none" xmlns="http://www.w3.org/2000/svg" viewBox="0 0 33 32" id="flower">
    <mask id="path-1-outside-1_3101_18" maskUnits="userSpaceOnUse" x="0.0638428" y="0" width="32" height="32" fill="black">
      <rect fill="white" x="0.0638428" width="32" height="32"></rect>
      <path d="M31.0638 8.78711C31.0638 4.49329 27.5798 1 23.2975 1C20.0757 1 17.2106 3.02039 16.0639 5.953C14.9171 3.02039 12.0518 1 8.83015 1C4.54788 1 1.06384 4.49329 1.06384 8.78711C1.06384 12.0134 3.00546 14.8292 5.91059 16C3.00546 17.1708 1.06384 19.9866 1.06384 23.2129C1.06384 27.5067 4.54788 31 8.83015 31C12.0518 31 14.9171 28.9796 16.0639 26.047C17.2106 28.9796 20.0757 31 23.2975 31C27.5798 31 31.0638 27.5067 31.0638 23.2129C31.0638 19.9866 29.1222 17.1708 26.2171 16C29.1222 14.8292 31.0638 12.0134 31.0638 8.78711ZM24.8904 15.6349C24.7211 15.6741 24.6011 15.8257 24.6011 16C24.6011 16.1743 24.7211 16.3259 24.8904 16.3651C28.0848 17.1096 30.3158 19.9254 30.3158 23.2129C30.3158 27.0933 27.1674 30.25 23.2975 30.25C19.9947 30.25 17.1063 27.9004 16.4299 24.6635C16.3937 24.4899 16.2409 24.3654 16.0639 24.3654C15.887 24.3654 15.7341 24.4899 15.698 24.6635C15.0214 27.9004 12.133 30.25 8.83015 30.25C4.96024 30.25 1.81186 27.0933 1.81186 23.2129C1.81186 19.9254 4.04293 17.1096 7.23733 16.3651C7.40662 16.3259 7.5266 16.1743 7.5266 16C7.5266 15.8257 7.40662 15.6741 7.23733 15.6349C4.04293 14.8904 1.81186 12.0746 1.81186 8.78711C1.81186 4.90674 4.96024 1.75 8.83015 1.75C12.133 1.75 15.0214 4.09961 15.698 7.33655C15.7341 7.51013 15.887 7.63464 16.0639 7.63464C16.2409 7.63464 16.3937 7.51013 16.4299 7.33655C17.1063 4.09961 19.9947 1.75 23.2975 1.75C27.1674 1.75 30.3158 4.90674 30.3158 8.78711C30.3158 12.0746 28.0848 14.8904 24.8904 15.6349Z"></path>
    </mask>
    <path d="M31.0638 8.78711C31.0638 4.49329 27.5798 1 23.2975 1C20.0757 1 17.2106 3.02039 16.0639 5.953C14.9171 3.02039 12.0518 1 8.83015 1C4.54788 1 1.06384 4.49329 1.06384 8.78711C1.06384 12.0134 3.00546 14.8292 5.91059 16C3.00546 17.1708 1.06384 19.9866 1.06384 23.2129C1.06384 27.5067 4.54788 31 8.83015 31C12.0518 31 14.9171 28.9796 16.0639 26.047C17.2106 28.9796 20.0757 31 23.2975 31C27.5798 31 31.0638 27.5067 31.0638 23.2129C31.0638 19.9866 29.1222 17.1708 26.2171 16C29.1222 14.8292 31.0638 12.0134 31.0638 8.78711ZM24.8904 15.6349C24.7211 15.6741 24.6011 15.8257 24.6011 16C24.6011 16.1743 24.7211 16.3259 24.8904 16.3651C28.0848 17.1096 30.3158 19.9254 30.3158 23.2129C30.3158 27.0933 27.1674 30.25 23.2975 30.25C19.9947 30.25 17.1063 27.9004 16.4299 24.6635C16.3937 24.4899 16.2409 24.3654 16.0639 24.3654C15.887 24.3654 15.7341 24.4899 15.698 24.6635C15.0214 27.9004 12.133 30.25 8.83015 30.25C4.96024 30.25 1.81186 27.0933 1.81186 23.2129C1.81186 19.9254 4.04293 17.1096 7.23733 16.3651C7.40662 16.3259 7.5266 16.1743 7.5266 16C7.5266 15.8257 7.40662 15.6741 7.23733 15.6349C4.04293 14.8904 1.81186 12.0746 1.81186 8.78711C1.81186 4.90674 4.96024 1.75 8.83015 1.75C12.133 1.75 15.0214 4.09961 15.698 7.33655C15.7341 7.51013 15.887 7.63464 16.0639 7.63464C16.2409 7.63464 16.3937 7.51013 16.4299 7.33655C17.1063 4.09961 19.9947 1.75 23.2975 1.75C27.1674 1.75 30.3158 4.90674 30.3158 8.78711C30.3158 12.0746 28.0848 14.8904 24.8904 15.6349Z" fill="#3DB370"></path>
    <path d="M31.0638 8.78711C31.0638 4.49329 27.5798 1 23.2975 1C20.0757 1 17.2106 3.02039 16.0639 5.953C14.9171 3.02039 12.0518 1 8.83015 1C4.54788 1 1.06384 4.49329 1.06384 8.78711C1.06384 12.0134 3.00546 14.8292 5.91059 16C3.00546 17.1708 1.06384 19.9866 1.06384 23.2129C1.06384 27.5067 4.54788 31 8.83015 31C12.0518 31 14.9171 28.9796 16.0639 26.047C17.2106 28.9796 20.0757 31 23.2975 31C27.5798 31 31.0638 27.5067 31.0638 23.2129C31.0638 19.9866 29.1222 17.1708 26.2171 16C29.1222 14.8292 31.0638 12.0134 31.0638 8.78711ZM24.8904 15.6349C24.7211 15.6741 24.6011 15.8257 24.6011 16C24.6011 16.1743 24.7211 16.3259 24.8904 16.3651C28.0848 17.1096 30.3158 19.9254 30.3158 23.2129C30.3158 27.0933 27.1674 30.25 23.2975 30.25C19.9947 30.25 17.1063 27.9004 16.4299 24.6635C16.3937 24.4899 16.2409 24.3654 16.0639 24.3654C15.887 24.3654 15.7341 24.4899 15.698 24.6635C15.0214 27.9004 12.133 30.25 8.83015 30.25C4.96024 30.25 1.81186 27.0933 1.81186 23.2129C1.81186 19.9254 4.04293 17.1096 7.23733 16.3651C7.40662 16.3259 7.5266 16.1743 7.5266 16C7.5266 15.8257 7.40662 15.6741 7.23733 15.6349C4.04293 14.8904 1.81186 12.0746 1.81186 8.78711C1.81186 4.90674 4.96024 1.75 8.83015 1.75C12.133 1.75 15.0214 4.09961 15.698 7.33655C15.7341 7.51013 15.887 7.63464 16.0639 7.63464C16.2409 7.63464 16.3937 7.51013 16.4299 7.33655C17.1063 4.09961 19.9947 1.75 23.2975 1.75C27.1674 1.75 30.3158 4.90674 30.3158 8.78711C30.3158 12.0746 28.0848 14.8904 24.8904 15.6349Z" stroke="#3DB370" stroke-width="2" mask="url(#path-1-outside-1_3101_18)"></path>
  </symbol>
  <symbol fill="none" xmlns="http://www.w3.org/2000/svg" viewBox="0 0 38 38" id="github">
    <rect width="38" height="38" rx="5" fill="#EFEEF3"></rect>
    <path d="M15.6895 24.7016C15.6895 24.7823 15.5968 24.8468 15.4798 24.8468C15.3468 24.8589 15.254 24.7944 15.254 24.7016C15.254 24.621 15.3468 24.5565 15.4637 24.5565C15.5847 24.5444 15.6895 24.6089 15.6895 24.7016ZM14.4355 24.5202C14.4073 24.6008 14.4879 24.6935 14.6089 24.7177C14.7137 24.7581 14.8347 24.7177 14.8589 24.6371C14.8831 24.5565 14.8065 24.4637 14.6855 24.4274C14.5806 24.3992 14.4637 24.4395 14.4355 24.5202ZM16.2177 24.4516C16.1008 24.4798 16.0202 24.5565 16.0323 24.6492C16.0444 24.7298 16.1492 24.7823 16.2702 24.754C16.3871 24.7258 16.4677 24.6492 16.4556 24.5685C16.4435 24.4919 16.3347 24.4395 16.2177 24.4516ZM18.871 9C13.2782 9 9 13.246 9 18.8387C9 23.3105 11.8145 27.1371 15.8347 28.4839C16.3508 28.5766 16.5323 28.2581 16.5323 27.996C16.5323 27.746 16.5202 26.3669 16.5202 25.5202C16.5202 25.5202 13.6976 26.125 13.1048 24.3185C13.1048 24.3185 12.6452 23.1452 11.9839 22.8427C11.9839 22.8427 11.0605 22.2097 12.0484 22.2218C12.0484 22.2218 13.0524 22.3024 13.6048 23.2621C14.4879 24.8185 15.9677 24.371 16.5444 24.1048C16.6371 23.4597 16.8992 23.0121 17.1895 22.746C14.9355 22.496 12.6613 22.1694 12.6613 18.2903C12.6613 17.1815 12.9677 16.625 13.6129 15.9153C13.5081 15.6532 13.1653 14.5726 13.7177 13.1774C14.5605 12.9153 16.5 14.2661 16.5 14.2661C17.3065 14.0403 18.1734 13.9234 19.0323 13.9234C19.8911 13.9234 20.7581 14.0403 21.5645 14.2661C21.5645 14.2661 23.504 12.9113 24.3468 13.1774C24.8992 14.5766 24.5565 15.6532 24.4516 15.9153C25.0968 16.629 25.4919 17.1855 25.4919 18.2903C25.4919 22.1815 23.1169 22.4919 20.8629 22.746C21.2339 23.0645 21.5484 23.6694 21.5484 24.6169C21.5484 25.9758 21.5363 27.6573 21.5363 27.9879C21.5363 28.25 21.7218 28.5685 22.2339 28.4758C26.2661 27.1371 29 23.3105 29 18.8387C29 13.246 24.4637 9 18.871 9ZM12.9194 22.9073C12.8669 22.9476 12.879 23.0403 12.9476 23.1169C13.0121 23.1815 13.1048 23.2097 13.1573 23.1573C13.2097 23.1169 13.1976 23.0242 13.129 22.9476C13.0645 22.8831 12.9718 22.8548 12.9194 22.9073ZM12.4839 22.5806C12.4556 22.6331 12.496 22.6976 12.5766 22.7379C12.6411 22.7782 12.7218 22.7661 12.75 22.7097C12.7782 22.6573 12.7379 22.5927 12.6573 22.5524C12.5766 22.5282 12.5121 22.5403 12.4839 22.5806ZM13.7903 24.0161C13.7258 24.0685 13.75 24.1895 13.8427 24.2661C13.9355 24.3589 14.0524 24.371 14.1048 24.3065C14.1573 24.254 14.1331 24.1331 14.0524 24.0565C13.9637 23.9637 13.8427 23.9516 13.7903 24.0161ZM13.3306 23.4234C13.2661 23.4637 13.2661 23.5685 13.3306 23.6613C13.3952 23.754 13.504 23.7944 13.5565 23.754C13.621 23.7016 13.621 23.5968 13.5565 23.504C13.5 23.4113 13.3952 23.371 13.3306 23.4234Z" fill="#0D0D0D"></path>
  </symbol>
  <symbol fill="none" xmlns="http://www.w3.org/2000/svg" viewBox="0 0 38 38" id="instagram">
    <rect width="38" height="38" rx="5" fill="#EFEEF3"></rect>
    <path d="M19.0078 13.8739C16.1685 13.8739 13.8783 16.1641 13.8783 19.0033C13.8783 21.8426 16.1685 24.1328 19.0078 24.1328C21.8471 24.1328 24.1373 21.8426 24.1373 19.0033C24.1373 16.1641 21.8471 13.8739 19.0078 13.8739ZM19.0078 22.3382C17.173 22.3382 15.673 20.8426 15.673 19.0033C15.673 17.1641 17.1685 15.6685 19.0078 15.6685C20.8471 15.6685 22.3426 17.1641 22.3426 19.0033C22.3426 20.8426 20.8426 22.3382 19.0078 22.3382ZM25.5435 13.6641C25.5435 14.3292 25.0078 14.8605 24.3471 14.8605C23.6819 14.8605 23.1506 14.3248 23.1506 13.6641C23.1506 13.0033 23.6864 12.4676 24.3471 12.4676C25.0078 12.4676 25.5435 13.0033 25.5435 13.6641ZM28.9408 14.8783C28.8649 13.2757 28.4989 11.856 27.3247 10.6864C26.1551 9.51674 24.7355 9.15067 23.1328 9.07031C21.481 8.97656 16.5301 8.97656 14.8783 9.07031C13.2801 9.14621 11.8605 9.51228 10.6864 10.6819C9.51228 11.8516 9.15067 13.2712 9.07031 14.8739C8.97656 16.5257 8.97656 21.4766 9.07031 23.1283C9.14621 24.731 9.51228 26.1507 10.6864 27.3203C11.8605 28.49 13.2757 28.856 14.8783 28.9364C16.5301 29.0301 21.481 29.0301 23.1328 28.9364C24.7355 28.8605 26.1551 28.4944 27.3247 27.3203C28.4944 26.1507 28.8605 24.731 28.9408 23.1283C29.0346 21.4766 29.0346 16.5301 28.9408 14.8783ZM26.8069 24.9007C26.4587 25.7757 25.7846 26.4498 24.9051 26.8025C23.5881 27.3248 20.4632 27.2042 19.0078 27.2042C17.5524 27.2042 14.423 27.3203 13.1105 26.8025C12.2355 26.4542 11.5614 25.7801 11.2087 24.9007C10.6864 23.5837 10.8069 20.4587 10.8069 19.0033C10.8069 17.548 10.6908 14.4185 11.2087 13.106C11.5569 12.231 12.231 11.5569 13.1105 11.2042C14.4274 10.6819 17.5524 10.8025 19.0078 10.8025C20.4632 10.8025 23.5926 10.6864 24.9051 11.2042C25.7801 11.5525 26.4542 12.2266 26.8069 13.106C27.3292 14.423 27.2087 17.548 27.2087 19.0033C27.2087 20.4587 27.3292 23.5882 26.8069 24.9007Z" fill="#0D0D0D"></path>
  </symbol>
  <symbol fill="none" xmlns="http://www.w3.org/2000/svg" viewBox="0 0 39 37" id="megaphone">
    <path d="M33.2795 17.0316C34.0538 18.2861 33.1253 19.8616 31.5777 19.9175C25.9265 20.1244 20.1644 21.4448 14.7319 24.0443L12.9356 25.014C12.9356 25.0216 12.9108 24.9744 17.2839 32.0894C17.6851 32.7404 17.447 33.572 16.7518 33.9481L15.335 34.7132C14.6399 35.0885 13.7502 34.8657 13.3489 34.2147L8.98693 27.1469L8.2789 27.5298C6.88787 28.2806 5.10932 27.8349 4.30603 26.5336L1.03472 21.2331C0.232233 19.9318 0.708558 18.268 2.09959 17.5165L8.55259 14.0309C13.4842 11.0465 17.6632 7.09498 20.7958 2.44661C21.6217 1.22081 23.5439 1.2563 24.3182 2.5108L27.1172 7.04695C28.7254 6.17839 30.7825 6.69423 31.7109 8.19873C32.6393 9.70322 32.0879 11.6269 30.4797 12.4954L33.2795 17.0316Z" fill="#D1E7FF"></path>
    <path d="M31.7108 8.19873C32.6392 9.70324 32.0878 11.6269 30.4796 12.4955L27.1171 7.04694C28.7253 6.17837 30.7824 6.69422 31.7108 8.19873Z" fill="#D1E7FF"></path>
    <path d="M24.3181 2.51078C24.7044 3.13719 24.6797 3.91429 24.2522 4.51684C20.8039 9.37751 16.1821 13.7696 10.5297 17.1909L2.96909 21.2746C2.44997 21.5556 2.03904 21.9446 1.75163 22.3939L1.03472 21.2331C0.232233 19.9318 0.708558 18.2679 2.09959 17.5164L8.55259 14.0309C13.4842 11.0465 17.6632 7.09494 20.7958 2.44658C21.6217 1.22078 23.5439 1.25635 24.3181 2.51078Z" fill="#E8F3FF"></path>
    <path d="M8.55259 14.031L14.7319 24.0443C13.4936 24.7128 9.51541 26.8612 8.2789 27.5299C6.88787 28.2806 5.10932 27.835 4.30603 26.5337L1.03472 21.2332C0.232233 19.9319 0.708558 18.2681 2.09959 17.5166L8.55259 14.031Z" fill="#B9DCFF"></path>
    <path d="M10.5094 17.2023C2.29841 21.6369 2.84256 21.3283 2.57767 21.5212C2.07882 21.8842 1.35077 21.7452 1.03454 21.2332C0.23205 19.9319 0.708375 18.268 2.09941 17.5165L8.55241 14.031L10.5094 17.2023Z" fill="#D1E7FF"></path>
    <path d="M14.1118 26.928C11.8145 28.1725 13.5047 27.2567 10.1672 29.0586L8.98688 27.1471L12.9355 25.015L14.1118 26.928Z" fill="#B9DCFF"></path>
    <path d="M31.5098 11.6313C31.2434 11.9735 30.897 12.2703 30.4796 12.4954L27.1171 7.04696C27.5345 6.82114 27.9826 6.68972 28.4322 6.64441C28.6015 6.91872 31.3621 11.3922 31.5098 11.6313Z" fill="#B9DCFF"></path>
    <path d="M31.3357 13.0215C33.8562 11.0404 32.9856 7.12262 29.836 6.31066C29.013 6.0985 28.161 6.14263 27.38 6.42889L24.8774 2.25793C23.859 0.560599 21.3333 0.515619 20.2489 2.17053C17.1708 6.86843 13.07 10.8641 8.2015 13.8962C7.92426 14.0685 7.82149 14.4246 7.98554 14.7144C8.01185 14.7608 12.1572 21.6688 12.1846 21.7145C12.3629 22.0116 12.7577 22.1137 13.0669 21.942C13.3758 21.7704 13.4816 21.3903 13.3033 21.093L9.41597 14.6141C14.0582 11.6279 18.1696 7.67449 21.3416 2.83342C21.9089 1.96747 23.2276 1.99435 23.7587 2.87941L32.7197 17.8144C33.2515 18.7006 32.614 19.8118 31.5526 19.8516C25.598 20.0748 19.768 21.5403 14.4377 24.1636C14.415 24.1747 8.37168 27.5326 7.9555 27.7638C6.87521 28.364 5.48902 28.0066 4.86544 26.9671L1.59405 21.5146C0.97039 20.4752 1.34184 19.1414 2.42205 18.5412L6.35933 16.3539C6.66821 16.1823 6.77405 15.8022 6.59571 15.5049C6.41737 15.2076 6.02227 15.1059 5.71346 15.2775L1.77619 17.4648C0.0791766 18.4076 -0.504362 20.5031 0.475415 22.1361L3.74688 27.5885C4.72674 29.2216 6.90452 29.7829 8.60153 28.8401L8.75048 28.7574L12.7895 35.489C13.3696 36.4559 14.6525 36.7871 15.6579 36.2286L17.0746 35.4416C18.0797 34.8832 18.4234 33.6487 17.8431 32.6815L14.9806 27.9106C14.8022 27.6134 14.4072 27.5116 14.0983 27.6832C13.7894 27.8548 13.6836 28.2349 13.8619 28.5321L16.7245 33.303C16.9478 33.6751 16.8156 34.1503 16.4287 34.3651L15.0121 35.1522C14.6253 35.367 14.1315 35.2397 13.9082 34.8675L9.8692 28.1359L15.0406 25.2629C20.101 22.775 25.7307 21.3136 31.603 21.0935C33.6381 21.0171 34.8553 18.8873 33.8384 17.1928L31.3357 13.0215ZM31.1512 8.72914C31.7888 9.79186 31.5598 11.1106 30.6771 11.9239L28.0384 7.52596C29.1952 7.19945 30.5033 7.64924 31.1512 8.72914ZM37.4682 5.96613L35.7971 6.89454C35.488 7.06622 35.0931 6.96422 34.9149 6.66708C34.7365 6.36985 34.8424 5.98974 35.1513 5.81814L36.8224 4.88973C37.1315 4.71805 37.5264 4.82005 37.7046 5.11719C37.883 5.41441 37.7771 5.79452 37.4682 5.96613ZM30.2815 2.42402L30.6891 0.960752C30.7814 0.629194 31.1354 0.432575 31.4802 0.52129C31.8247 0.610162 32.0292 0.950964 31.9368 1.28244L31.5293 2.74571C31.4371 3.07641 31.0839 3.27404 30.7382 3.18517C30.3937 3.0963 30.1892 2.75558 30.2815 2.42402ZM38.7287 12.6022C38.6514 12.8798 38.3904 13.0629 38.1052 13.0629C37.9883 13.0629 38.0701 13.0757 36.4169 12.6495C36.0724 12.5606 35.8679 12.2199 35.9602 11.8883C36.0526 11.5568 36.4067 11.3602 36.7512 11.4489L38.272 11.8409C38.6165 11.9298 38.8211 12.2706 38.7287 12.6022Z" fill="#007FFC"></path>
  </symbol>
  <symbol fill="none" xmlns="http://www.w3.org/2000/svg" viewBox="0 0 26 36" id="phone">
    <path d="M21.8053 0.599731C23.221 0.599731 24.3691 1.67379 24.3691 2.99818V32.9788C24.3691 34.3032 23.221 35.3773 21.8053 35.3773H4.17932C2.76363 35.3773 1.61554 34.3032 1.61554 32.9788V2.99818C1.61554 1.67379 2.76363 0.599731 4.17932 0.599731H21.8053Z" fill="#D1E7FF"></path>
    <path d="M17.0238 13.4703C17.6375 13.4703 18.1518 13.9028 18.2183 14.4732L19.0756 21.8394C19.1533 22.5043 18.5965 23.0851 17.881 23.0851H8.10342C7.38797 23.0851 6.83115 22.5043 6.90886 21.8394L7.76612 14.4732C7.83262 13.9028 8.34698 13.4703 8.96068 13.4703H17.0238Z" fill="#B9DCFF"></path>
    <path d="M21.9265 0.602254C23.9883 0.691971 23.879 3.59769 21.8149 3.59769H13.473C8.69423 3.59769 4.82027 7.22182 4.82027 11.6925V35.3771H4.17932C2.76339 35.3771 1.61554 34.3033 1.61554 32.9787V2.99808C1.61554 1.67346 2.76339 0.599631 4.17932 0.599631C4.29533 0.599631 21.8324 0.598132 21.9265 0.602254Z" fill="#E8F3FF"></path>
    <path d="M24.3691 30.1306V32.9788C24.3691 34.3031 23.221 35.3772 21.8053 35.3772H4.17932C2.76363 35.3772 1.61554 34.3031 1.61554 32.9788V30.1306H24.3691Z" fill="#B9DCFF"></path>
    <path d="M4.82025 30.1306V32.9877C4.82025 34.9409 1.61554 35.0408 1.61554 32.9787V30.1306H4.82025Z" fill="#D1E7FF"></path>
    <path d="M17.024 15.7189C13.1417 15.7189 9.96826 18.4531 9.55854 21.9753C9.48507 22.6068 8.91503 23.0851 8.23602 23.0851H8.10343C7.38797 23.0851 6.83115 22.5043 6.90886 21.8394L7.76613 14.4732C7.83263 13.9028 8.34699 13.4703 8.96069 13.4703H17.0238C17.637 13.4703 18.152 13.9024 18.2183 14.4727C18.2959 15.1393 17.7381 15.7189 17.024 15.7189Z" fill="#D1E7FF"></path>
    <path d="M21.8187 0H4.18134C2.41312 0 0.974548 1.3458 0.974548 3V33C0.974548 34.6542 2.41312 36 4.18134 36H21.8187C23.5869 36 25.0255 34.6542 25.0255 33V3C25.0255 1.3458 23.5869 0 21.8187 0ZM21.8187 34.8H4.18134C3.12045 34.8 2.25726 33.9925 2.25726 33V3C2.25726 2.00745 3.12045 1.2 4.18134 1.2H21.8187C22.8796 1.2 23.7428 2.00745 23.7428 3V29.55H5.38389C5.0297 29.55 4.74253 29.8187 4.74253 30.15C4.74253 30.4814 5.0297 30.75 5.38389 30.75H23.7428V33C23.7428 33.9925 22.8796 34.8 21.8187 34.8ZM14.4431 32.625C14.4431 32.9564 14.1559 33.225 13.8017 33.225H12.1983C11.8441 33.225 11.557 32.9564 11.557 32.625C11.557 32.2937 11.8441 32.025 12.1983 32.025H13.8017C14.1559 32.025 14.4431 32.2937 14.4431 32.625ZM8.10806 23.7H17.892C18.9889 23.7 19.8437 22.8079 19.7251 21.7883L18.8673 14.4176C18.7653 13.5407 17.9771 12.8794 17.0342 12.8794H16.4405V11.7686C16.4404 9.99383 14.8971 8.55 13 8.55C11.103 8.55 9.55961 9.99383 9.55961 11.7686V12.8793H8.96587C8.02292 12.8793 7.23493 13.5406 7.13279 14.4176L6.27505 21.7883C6.15632 22.8084 7.01181 23.7 8.10806 23.7ZM7.55015 21.9182L8.40789 14.5475C8.439 14.2806 8.67878 14.0793 8.96579 14.0793H9.55953V15.0155C9.55953 15.3469 9.8467 15.6155 10.2009 15.6155C10.5551 15.6155 10.8422 15.3469 10.8422 15.0155V11.7686C10.8422 10.6556 11.8101 9.75 12.9999 9.75C14.1897 9.75 15.1576 10.6555 15.1576 11.7686V12.8794H12.3834C12.0292 12.8794 11.7421 13.148 11.7421 13.4794C11.7421 13.8107 12.0292 14.0794 12.3834 14.0794H15.1576V15.0155C15.1576 15.3469 15.4448 15.6155 15.799 15.6155C16.1532 15.6155 16.4403 15.3469 16.4403 15.0155V14.0794H17.0341C17.3211 14.0794 17.5609 14.2807 17.592 14.5475L18.4497 21.9182C18.4858 22.2284 18.2275 22.5 17.8918 22.5H8.10806C7.77391 22.5 7.514 22.2296 7.55015 21.9182Z" fill="#007FFC"></path>
  </symbol>
  <symbol fill="none" xmlns="http://www.w3.org/2000/svg" viewBox="0 0 38 38" id="twitter">
    <rect width="38" height="38" rx="5" fill="#EFEEF3"></rect>
    <path d="M26.9441 15.0482C26.9568 15.2259 26.9568 15.4036 26.9568 15.5812C26.9568 21 22.8325 27.2436 15.2944 27.2436C12.9721 27.2436 10.8147 26.571 9 25.4036C9.32996 25.4416 9.64719 25.4543 9.98984 25.4543C11.9061 25.4543 13.67 24.8071 15.0787 23.703C13.2766 23.665 11.7665 22.4848 11.2462 20.8604C11.5 20.8984 11.7538 20.9238 12.0203 20.9238C12.3883 20.9238 12.7564 20.873 13.099 20.7843C11.2208 20.4035 9.81215 18.7538 9.81215 16.7614V16.7107C10.3578 17.0152 10.9924 17.2056 11.6649 17.2309C10.5609 16.4949 9.83754 15.2386 9.83754 13.8172C9.83754 13.0558 10.0405 12.3579 10.3959 11.7487C12.4137 14.236 15.4467 15.8604 18.8477 16.038C18.7842 15.7335 18.7461 15.4163 18.7461 15.099C18.7461 12.8401 20.5736 11 22.8451 11C24.0253 11 25.0913 11.4949 25.84 12.2944C26.7664 12.1168 27.6547 11.7741 28.4416 11.3046C28.137 12.2564 27.4898 13.0559 26.6395 13.5634C27.4644 13.4746 28.2639 13.2462 28.9999 12.9289C28.4416 13.7411 27.7436 14.4644 26.9441 15.0482Z" fill="#3DB370"></path>
  </symbol>
</svg>